<svg width="120" height="30" viewBox="0 0 120 30" fill="none" xmlns="http://www.w3.org/2000/svg">
<rect width="120" height="30" fill="#1572B6"/>
<path d="M35.0715 4L36.7854 23.4366L44.5001 26L52.2148 23.4366L53.9287 4H35.0715ZM50.447 7.92857L50.2113 10.2513L44.5492 12.6723L44.5345 12.6772H50.0099L49.3814 19.8763L44.559 21.2857L39.7072 19.8518L39.393 16.2228H41.7943L41.9514 18.1036L44.5345 18.7567L47.2206 18.0004L47.4023 14.9754L39.2358 14.9509V14.946L39.226 14.9509L39.0492 12.6772L44.5541 10.3839L44.8733 10.2513H38.8381L38.5532 7.92857H50.447Z" fill="white"/>
<path d="M64.4304 16.1113H66.4812C66.4539 16.7051 66.2937 17.2285 66.0007 17.6816C65.7078 18.1348 65.3015 18.4883 64.782 18.7422C64.2664 18.9922 63.657 19.1172 62.9539 19.1172C62.3835 19.1172 61.8738 19.0215 61.4246 18.8301C60.9792 18.6387 60.6003 18.3633 60.2878 18.0039C59.9792 17.6445 59.7429 17.209 59.5789 16.6973C59.4187 16.1855 59.3386 15.6094 59.3386 14.9688V14.5059C59.3386 13.8652 59.4226 13.2891 59.5906 12.7773C59.7625 12.2617 60.0046 11.8242 60.3171 11.4648C60.6335 11.1016 61.0125 10.8242 61.4539 10.6328C61.8953 10.4414 62.3855 10.3457 62.9246 10.3457C63.6667 10.3457 64.2937 10.4785 64.8054 10.7441C65.3171 11.0098 65.7136 11.375 65.9949 11.8398C66.2761 12.3008 66.4421 12.8262 66.4929 13.416H64.4421C64.4343 13.0957 64.3796 12.8281 64.2781 12.6133C64.1765 12.3945 64.0164 12.2305 63.7976 12.1211C63.5789 12.0117 63.2878 11.957 62.9246 11.957C62.6707 11.957 62.45 12.0039 62.2625 12.0977C62.075 12.1914 61.9187 12.3398 61.7937 12.543C61.6687 12.7461 61.575 13.0098 61.5125 13.334C61.4539 13.6543 61.4246 14.041 61.4246 14.4941V14.9688C61.4246 15.4219 61.4519 15.8086 61.5066 16.1289C61.5613 16.4492 61.6492 16.7109 61.7703 16.9141C61.8914 17.1172 62.0476 17.2676 62.239 17.3652C62.4343 17.459 62.6726 17.5059 62.9539 17.5059C63.2664 17.5059 63.53 17.457 63.7449 17.3594C63.9597 17.2578 64.1257 17.1055 64.2429 16.9023C64.3601 16.6953 64.4226 16.4316 64.4304 16.1113ZM73.0484 16.7324C73.0484 16.5996 73.0289 16.4805 72.9898 16.375C72.9507 16.2656 72.8785 16.1641 72.773 16.0703C72.6675 15.9766 72.5152 15.8828 72.316 15.7891C72.1207 15.6914 71.8628 15.5898 71.5425 15.4844C71.1675 15.3594 70.8062 15.2188 70.4585 15.0625C70.1109 14.9023 69.8003 14.7168 69.5269 14.5059C69.2535 14.291 69.0367 14.041 68.8765 13.7559C68.7164 13.4668 68.6363 13.1309 68.6363 12.748C68.6363 12.3809 68.7183 12.0508 68.8824 11.7578C69.0464 11.4609 69.275 11.209 69.5679 11.002C69.8648 10.791 70.2125 10.6309 70.6109 10.5215C71.0093 10.4082 71.4449 10.3516 71.9175 10.3516C72.5425 10.3516 73.0933 10.4609 73.5699 10.6797C74.0503 10.8945 74.4253 11.2012 74.6949 11.5996C74.9683 11.9941 75.105 12.4609 75.105 13H73.0601C73.0601 12.7852 73.0152 12.5957 72.9253 12.4316C72.8394 12.2676 72.7085 12.1387 72.5328 12.0449C72.357 11.9512 72.1363 11.9043 71.8707 11.9043C71.6128 11.9043 71.396 11.9434 71.2203 12.0215C71.0445 12.0996 70.9117 12.2051 70.8218 12.3379C70.732 12.4668 70.6871 12.6094 70.6871 12.7656C70.6871 12.8945 70.7222 13.0117 70.7925 13.1172C70.8667 13.2188 70.9703 13.3145 71.1031 13.4043C71.2398 13.4941 71.4039 13.5801 71.5953 13.6621C71.7906 13.7441 72.0093 13.8242 72.2515 13.9023C72.7046 14.0469 73.107 14.209 73.4585 14.3887C73.814 14.5645 74.1128 14.7656 74.355 14.9922C74.6011 15.2148 74.7867 15.4688 74.9117 15.7539C75.0406 16.0391 75.105 16.3613 75.105 16.7207C75.105 17.1035 75.0308 17.4434 74.8824 17.7402C74.7339 18.0371 74.521 18.2891 74.2437 18.4961C73.9664 18.6992 73.6343 18.8535 73.2476 18.959C72.8609 19.0645 72.4292 19.1172 71.9527 19.1172C71.5152 19.1172 71.0835 19.0625 70.6578 18.9531C70.2359 18.8398 69.8531 18.668 69.5093 18.4375C69.1656 18.2031 68.8902 17.9043 68.6832 17.541C68.48 17.1738 68.3785 16.7383 68.3785 16.2344H70.441C70.441 16.4844 70.4742 16.6953 70.5406 16.8672C70.607 17.0391 70.7046 17.1777 70.8335 17.2832C70.9625 17.3848 71.1207 17.459 71.3082 17.5059C71.4957 17.5488 71.7105 17.5703 71.9527 17.5703C72.2144 17.5703 72.4253 17.5332 72.5855 17.459C72.7457 17.3809 72.8628 17.2793 72.9371 17.1543C73.0113 17.0254 73.0484 16.8848 73.0484 16.7324ZM81.7601 16.7324C81.7601 16.5996 81.7406 16.4805 81.7015 16.375C81.6625 16.2656 81.5902 16.1641 81.4847 16.0703C81.3792 15.9766 81.2269 15.8828 81.0277 15.7891C80.8324 15.6914 80.5746 15.5898 80.2542 15.4844C79.8792 15.3594 79.5179 15.2188 79.1703 15.0625C78.8226 14.9023 78.5121 14.7168 78.2386 14.5059C77.9652 14.291 77.7484 14.041 77.5882 13.7559C77.4281 13.4668 77.348 13.1309 77.348 12.748C77.348 12.3809 77.43 12.0508 77.5941 11.7578C77.7582 11.4609 77.9867 11.209 78.2796 11.002C78.5765 10.791 78.9242 10.6309 79.3226 10.5215C79.721 10.4082 80.1566 10.3516 80.6292 10.3516C81.2542 10.3516 81.805 10.4609 82.2816 10.6797C82.7621 10.8945 83.1371 11.2012 83.4066 11.5996C83.68 11.9941 83.8167 12.4609 83.8167 13H81.7718C81.7718 12.7852 81.7269 12.5957 81.6371 12.4316C81.5511 12.2676 81.4203 12.1387 81.2445 12.0449C81.0687 11.9512 80.848 11.9043 80.5824 11.9043C80.3246 11.9043 80.1078 11.9434 79.932 12.0215C79.7562 12.0996 79.6234 12.2051 79.5335 12.3379C79.4437 12.4668 79.3988 12.6094 79.3988 12.7656C79.3988 12.8945 79.4339 13.0117 79.5042 13.1172C79.5785 13.2188 79.682 13.3145 79.8148 13.4043C79.9515 13.4941 80.1156 13.5801 80.307 13.6621C80.5023 13.7441 80.721 13.8242 80.9632 13.9023C81.4164 14.0469 81.8187 14.209 82.1703 14.3887C82.5257 14.5645 82.8246 14.7656 83.0667 14.9922C83.3128 15.2148 83.4984 15.4688 83.6234 15.7539C83.7523 16.0391 83.8167 16.3613 83.8167 16.7207C83.8167 17.1035 83.7425 17.4434 83.5941 17.7402C83.4457 18.0371 83.2328 18.2891 82.9554 18.4961C82.6781 18.6992 82.346 18.8535 81.9593 18.959C81.5726 19.0645 81.141 19.1172 80.6644 19.1172C80.2269 19.1172 79.7953 19.0625 79.3695 18.9531C78.9476 18.8398 78.5648 18.668 78.221 18.4375C77.8773 18.2031 77.6019 17.9043 77.3949 17.541C77.1917 17.1738 77.0902 16.7383 77.0902 16.2344H79.1527C79.1527 16.4844 79.1859 16.6953 79.2523 16.8672C79.3187 17.0391 79.4164 17.1777 79.5453 17.2832C79.6742 17.3848 79.8324 17.459 80.0199 17.5059C80.2074 17.5488 80.4222 17.5703 80.6644 17.5703C80.9261 17.5703 81.1371 17.5332 81.2972 17.459C81.4574 17.3809 81.5746 17.2793 81.6488 17.1543C81.723 17.0254 81.7601 16.8848 81.7601 16.7324Z" fill="white"/>
</svg>
