<svg width="120" height="30" viewBox="0 0 120 30" fill="none" xmlns="http://www.w3.org/2000/svg">
<rect width="120" height="30" fill="#7289DA"/>
<path d="M39.9556 8.66765C39.9497 8.65666 39.94 8.64819 39.9283 8.64384C38.6326 8.04924 37.2652 7.62509 35.8605 7.38198C35.8478 7.37967 35.8348 7.38138 35.8232 7.38687C35.8116 7.39237 35.802 7.40137 35.7958 7.4126C35.6095 7.75078 35.4404 8.09815 35.2891 8.45337C33.774 8.22341 32.2329 8.22341 30.7178 8.45337C30.5659 8.09727 30.3944 7.74981 30.2042 7.4126C30.1976 7.4017 30.188 7.39298 30.1765 7.38754C30.165 7.38209 30.1522 7.38016 30.1396 7.38198C28.7324 7.624 27.3626 8.04818 26.0649 8.64384C26.0535 8.64867 26.044 8.65701 26.0377 8.66765C23.4459 12.5417 22.7351 16.317 23.082 20.0482C23.083 20.0576 23.0859 20.0667 23.0906 20.0749C23.0953 20.0831 23.1016 20.0902 23.1092 20.0958C24.6189 21.2125 26.3072 22.0647 28.1022 22.6161C28.1151 22.6201 28.129 22.62 28.1418 22.6157C28.1546 22.6114 28.1657 22.6033 28.1737 22.5923C28.5588 22.068 28.9001 21.5129 29.194 20.9325C29.198 20.9245 29.2002 20.9158 29.2006 20.9069C29.201 20.8981 29.1995 20.8892 29.1963 20.8809C29.1931 20.8726 29.1883 20.865 29.182 20.8587C29.1758 20.8524 29.1683 20.8474 29.16 20.8441C28.6208 20.6374 28.0987 20.3884 27.5989 20.0992C27.59 20.0938 27.5826 20.0864 27.5773 20.0775C27.5719 20.0686 27.5688 20.0586 27.5681 20.0483C27.5674 20.0379 27.5693 20.0276 27.5734 20.0181C27.5776 20.0086 27.584 20.0003 27.5921 19.9938C27.6975 19.9155 27.8029 19.8339 27.9016 19.7523C27.9103 19.7446 27.921 19.7396 27.9324 19.7378C27.9438 19.736 27.9556 19.7375 27.9662 19.7421C31.2382 21.2352 34.7823 21.2352 38.0169 19.7421C38.0272 19.737 38.0387 19.735 38.0501 19.7362C38.0616 19.7374 38.0724 19.7418 38.0815 19.7489C38.1801 19.8305 38.2856 19.9155 38.391 19.9938C38.3991 20.0003 38.4054 20.0086 38.4096 20.0181C38.4138 20.0276 38.4156 20.0379 38.4149 20.0483C38.4143 20.0586 38.4111 20.0686 38.4058 20.0775C38.4004 20.0864 38.393 20.0938 38.3842 20.0992C37.8856 20.3899 37.3634 20.6379 36.823 20.8407C36.8148 20.844 36.8073 20.849 36.801 20.8553C36.7948 20.8616 36.7899 20.8692 36.7867 20.8775C36.7835 20.8858 36.7821 20.8947 36.7825 20.9035C36.7829 20.9124 36.7851 20.9211 36.789 20.9291C37.0881 21.5066 37.4291 22.0613 37.8094 22.5889C37.8173 22.5999 37.8285 22.608 37.8413 22.6123C37.8541 22.6166 37.8679 22.6167 37.8808 22.6127C39.681 22.0638 41.3742 21.2114 42.8874 20.0924C42.8952 20.087 42.9016 20.0799 42.9063 20.0716C42.911 20.0634 42.9139 20.0542 42.9146 20.0448C43.3296 15.7354 42.214 11.9907 39.9556 8.66765ZM29.6838 17.7762C28.6975 17.7762 27.888 16.8714 27.888 15.7626C27.888 14.6538 28.6839 13.7457 29.6838 13.7457C30.694 13.7457 31.4967 14.6572 31.4797 15.7592C31.4797 16.8714 30.6838 17.7762 29.6838 17.7762ZM36.3298 17.7762C35.3435 17.7762 34.534 16.8714 34.534 15.7626C34.534 14.6538 35.3265 13.7457 36.3298 13.7457C37.34 13.7457 38.1427 14.6572 38.1257 15.7592C38.1257 16.8714 37.3366 17.7762 36.3298 17.7762Z" fill="white"/>
<path d="M51.4219 19H49.5293L49.541 17.418H51.4219C51.8125 17.418 52.1426 17.3242 52.4121 17.1367C52.6855 16.9492 52.8926 16.6699 53.0332 16.2988C53.1777 15.9238 53.25 15.4629 53.25 14.916V14.5469C53.25 14.1367 53.209 13.7773 53.127 13.4688C53.0488 13.1562 52.9316 12.8965 52.7754 12.6895C52.6191 12.4785 52.4238 12.3203 52.1895 12.2148C51.959 12.1094 51.6934 12.0566 51.3926 12.0566H49.4941V10.4688H51.3926C51.9707 10.4688 52.5 10.5684 52.9805 10.7676C53.4648 10.9629 53.8828 11.2441 54.2344 11.6113C54.5898 11.9746 54.8633 12.4062 55.0547 12.9062C55.25 13.4023 55.3477 13.9531 55.3477 14.5586V14.916C55.3477 15.5176 55.25 16.0684 55.0547 16.5684C54.8633 17.0684 54.5918 17.5 54.2402 17.8633C53.8887 18.2266 53.4727 18.5078 52.9922 18.707C52.5156 18.9023 51.9922 19 51.4219 19ZM50.707 10.4688V19H48.6504V10.4688H50.707ZM59.6121 12.6602V19H57.6316V12.6602H59.6121ZM57.5145 11.0254C57.5145 10.7441 57.616 10.5137 57.8191 10.334C58.0223 10.1543 58.2859 10.0645 58.6102 10.0645C58.9344 10.0645 59.198 10.1543 59.4012 10.334C59.6043 10.5137 59.7059 10.7441 59.7059 11.0254C59.7059 11.3066 59.6043 11.5371 59.4012 11.7168C59.198 11.8965 58.9344 11.9863 58.6102 11.9863C58.2859 11.9863 58.0223 11.8965 57.8191 11.7168C57.616 11.5371 57.5145 11.3066 57.5145 11.0254ZM65.3531 17.2188C65.3531 17.1094 65.316 17.0156 65.2418 16.9375C65.1715 16.8555 65.0465 16.7812 64.8668 16.7148C64.6871 16.6445 64.4352 16.5742 64.1109 16.5039C63.8023 16.4375 63.5113 16.3496 63.2379 16.2402C62.9684 16.1309 62.732 15.998 62.5289 15.8418C62.3258 15.6855 62.1656 15.5 62.0484 15.2852C61.9352 15.0703 61.8785 14.8242 61.8785 14.5469C61.8785 14.2773 61.9352 14.0234 62.0484 13.7852C62.1656 13.543 62.3355 13.3301 62.5582 13.1465C62.7848 12.959 63.0602 12.8125 63.3844 12.707C63.7086 12.5977 64.0777 12.543 64.4918 12.543C65.0621 12.543 65.5543 12.6309 65.9684 12.8066C66.3824 12.9785 66.7008 13.2207 66.9234 13.5332C67.15 13.8418 67.2633 14.1992 67.2633 14.6055H65.2887C65.2887 14.4453 65.2613 14.3086 65.2066 14.1953C65.1559 14.082 65.0719 13.9961 64.9547 13.9375C64.8375 13.875 64.6812 13.8438 64.4859 13.8438C64.3492 13.8438 64.2242 13.8691 64.1109 13.9199C64.0016 13.9707 63.9137 14.041 63.8473 14.1309C63.7809 14.2207 63.7477 14.3262 63.7477 14.4473C63.7477 14.5332 63.7672 14.6113 63.8062 14.6816C63.8492 14.748 63.9137 14.8105 63.9996 14.8691C64.0855 14.9238 64.1949 14.9746 64.3277 15.0215C64.4605 15.0645 64.6207 15.1035 64.8082 15.1387C65.234 15.2168 65.6324 15.3281 66.0035 15.4727C66.3746 15.6172 66.6754 15.8223 66.9059 16.0879C67.1402 16.3535 67.2574 16.7109 67.2574 17.1602C67.2574 17.4414 67.193 17.7012 67.0641 17.9395C66.9352 18.1738 66.7496 18.3809 66.5074 18.5605C66.2652 18.7363 65.9742 18.873 65.6344 18.9707C65.2945 19.0684 64.9117 19.1172 64.4859 19.1172C63.8805 19.1172 63.3687 19.0098 62.9508 18.7949C62.5328 18.5762 62.2164 18.3027 62.0016 17.9746C61.7906 17.6426 61.6852 17.3066 61.6852 16.9668H63.525C63.5328 17.1621 63.5797 17.3223 63.6656 17.4473C63.7555 17.5723 63.8746 17.6641 64.023 17.7227C64.1715 17.7812 64.3434 17.8105 64.5387 17.8105C64.7184 17.8105 64.8668 17.7852 64.984 17.7344C65.1051 17.6836 65.1969 17.6152 65.2594 17.5293C65.3219 17.4395 65.3531 17.3359 65.3531 17.2188ZM72.0609 17.5938C72.2445 17.5938 72.4008 17.5605 72.5297 17.4941C72.6625 17.4238 72.7621 17.3262 72.8285 17.2012C72.8988 17.0723 72.932 16.918 72.9281 16.7383H74.7855C74.7895 17.2148 74.6723 17.6328 74.434 17.9922C74.1996 18.3477 73.8793 18.625 73.473 18.8242C73.0707 19.0195 72.6156 19.1172 72.1078 19.1172C71.6117 19.1172 71.1781 19.0371 70.807 18.877C70.4359 18.7129 70.1254 18.4863 69.8754 18.1973C69.6293 17.9043 69.4438 17.5625 69.3188 17.1719C69.1977 16.7812 69.1371 16.3574 69.1371 15.9004V15.7656C69.1371 15.3086 69.1977 14.8848 69.3188 14.4941C69.4438 14.0996 69.6293 13.7578 69.8754 13.4688C70.1254 13.1758 70.434 12.9492 70.8012 12.7891C71.1723 12.625 71.6039 12.543 72.0961 12.543C72.6234 12.543 73.0883 12.6426 73.4906 12.8418C73.8969 13.041 74.2152 13.3301 74.4457 13.709C74.6762 14.0879 74.7895 14.5469 74.7855 15.0859H72.9281C72.932 14.8945 72.9027 14.7227 72.8402 14.5703C72.7777 14.418 72.6801 14.2969 72.5473 14.207C72.4184 14.1133 72.2523 14.0664 72.0492 14.0664C71.8461 14.0664 71.682 14.1113 71.557 14.2012C71.432 14.291 71.3363 14.416 71.2699 14.5762C71.2074 14.7324 71.1645 14.9121 71.141 15.1152C71.1215 15.3184 71.1117 15.5352 71.1117 15.7656V15.9004C71.1117 16.1348 71.1215 16.3555 71.141 16.5625C71.1645 16.7656 71.2094 16.9453 71.2758 17.1016C71.3422 17.2539 71.4379 17.375 71.5629 17.4648C71.6879 17.5508 71.8539 17.5938 72.0609 17.5938ZM76.5832 15.8945V15.7715C76.5832 15.3066 76.6496 14.8789 76.7824 14.4883C76.9152 14.0938 77.1105 13.752 77.3684 13.4629C77.6262 13.1738 77.9445 12.9492 78.3234 12.7891C78.7023 12.625 79.1398 12.543 79.6359 12.543C80.1359 12.543 80.5754 12.625 80.9543 12.7891C81.3371 12.9492 81.6574 13.1738 81.9152 13.4629C82.173 13.752 82.3684 14.0938 82.5012 14.4883C82.634 14.8789 82.7004 15.3066 82.7004 15.7715V15.8945C82.7004 16.3555 82.634 16.7832 82.5012 17.1777C82.3684 17.5684 82.173 17.9102 81.9152 18.2031C81.6574 18.4922 81.3391 18.7168 80.9602 18.877C80.5812 19.0371 80.1437 19.1172 79.6477 19.1172C79.1516 19.1172 78.7121 19.0371 78.3293 18.877C77.9465 18.7168 77.6262 18.4922 77.3684 18.2031C77.1105 17.9102 76.9152 17.5684 76.7824 17.1777C76.6496 16.7832 76.5832 16.3555 76.5832 15.8945ZM78.5578 15.7715V15.8945C78.5578 16.1328 78.5754 16.3555 78.6105 16.5625C78.6457 16.7695 78.7043 16.9512 78.7863 17.1074C78.8684 17.2598 78.9797 17.3789 79.1203 17.4648C79.2609 17.5508 79.4367 17.5938 79.6477 17.5938C79.8547 17.5938 80.0266 17.5508 80.1633 17.4648C80.3039 17.3789 80.4152 17.2598 80.4973 17.1074C80.5793 16.9512 80.6379 16.7695 80.673 16.5625C80.7082 16.3555 80.7258 16.1328 80.7258 15.8945V15.7715C80.7258 15.541 80.7082 15.3242 80.673 15.1211C80.6379 14.9141 80.5793 14.7324 80.4973 14.5762C80.4152 14.416 80.3039 14.291 80.1633 14.2012C80.0227 14.1113 79.8469 14.0664 79.6359 14.0664C79.4289 14.0664 79.2551 14.1113 79.1145 14.2012C78.9777 14.291 78.8684 14.416 78.7863 14.5762C78.7043 14.7324 78.6457 14.9141 78.6105 15.1211C78.5754 15.3242 78.5578 15.541 78.5578 15.7715ZM86.7715 14.2305V19H84.7969V12.6602H86.6426L86.7715 14.2305ZM88.6465 12.6133L88.6113 14.4473C88.5332 14.4395 88.4277 14.4297 88.2949 14.418C88.1621 14.4062 88.0508 14.4004 87.9609 14.4004C87.7305 14.4004 87.5312 14.4277 87.3633 14.4824C87.1992 14.5332 87.0625 14.6113 86.9531 14.7168C86.8477 14.8184 86.7695 14.9473 86.7188 15.1035C86.6719 15.2598 86.6504 15.4414 86.6543 15.6484L86.2969 15.4141C86.2969 14.9883 86.3379 14.6016 86.4199 14.2539C86.5059 13.9023 86.627 13.5996 86.7832 13.3457C86.9395 13.0879 87.1289 12.8906 87.3516 12.7539C87.5742 12.6133 87.8242 12.543 88.1016 12.543C88.1992 12.543 88.2949 12.5488 88.3887 12.5605C88.4863 12.5723 88.5723 12.5898 88.6465 12.6133ZM94.0535 17.5469V10H96.0398V19H94.2586L94.0535 17.5469ZM90.1629 15.9062V15.7832C90.1629 15.3027 90.2156 14.8652 90.3211 14.4707C90.4266 14.0723 90.5828 13.7305 90.7898 13.4453C90.9969 13.1562 91.2547 12.9336 91.5633 12.7773C91.8719 12.6211 92.2273 12.543 92.6297 12.543C92.9891 12.543 93.3035 12.627 93.573 12.7949C93.8426 12.959 94.073 13.1895 94.2645 13.4863C94.4559 13.7832 94.6121 14.1309 94.7332 14.5293C94.8543 14.9238 94.9461 15.3496 95.0086 15.8066V15.9531C94.9461 16.3828 94.8543 16.7891 94.7332 17.1719C94.6121 17.5508 94.4559 17.8867 94.2645 18.1797C94.073 18.4727 93.8406 18.7031 93.5672 18.8711C93.2977 19.0352 92.9813 19.1172 92.618 19.1172C92.2156 19.1172 91.8602 19.0371 91.5516 18.877C91.2469 18.7168 90.991 18.4922 90.784 18.2031C90.5809 17.9141 90.4266 17.5742 90.3211 17.1836C90.2156 16.793 90.1629 16.3672 90.1629 15.9062ZM92.1375 15.7832V15.9062C92.1375 16.1445 92.1531 16.3652 92.1844 16.5684C92.2156 16.7715 92.2684 16.9512 92.3426 17.1074C92.4207 17.2598 92.5223 17.3789 92.6473 17.4648C92.7762 17.5508 92.9344 17.5938 93.1219 17.5938C93.3758 17.5938 93.5848 17.5332 93.7488 17.4121C93.9168 17.291 94.0398 17.1191 94.118 16.8965C94.2 16.6738 94.2352 16.4121 94.2234 16.1113V15.6484C94.2313 15.3906 94.2137 15.1641 94.1707 14.9688C94.1277 14.7695 94.0594 14.6035 93.9656 14.4707C93.8758 14.3379 93.7605 14.2383 93.6199 14.1719C93.4832 14.1016 93.3211 14.0664 93.1336 14.0664C92.95 14.0664 92.7938 14.1094 92.6648 14.1953C92.5398 14.2812 92.4383 14.4023 92.3602 14.5586C92.282 14.7109 92.2254 14.8926 92.1902 15.1035C92.1551 15.3105 92.1375 15.5371 92.1375 15.7832Z" fill="white"/>
</svg>
