<svg width="120" height="32" viewBox="0 0 120 32" fill="none" xmlns="http://www.w3.org/2000/svg">
<rect width="120" height="30" transform="translate(0 1)" fill="#FF9900"/>
<path d="M14.4338 5.50234V22.0828C14.4338 23.4536 16.564 23.4557 16.564 22.0828V5.50234C16.564 4.13155 14.4338 4.12942 14.4338 5.50234ZM26.4205 10.2729C24.2903 11.2667 22.1601 12.2615 20.0299 13.2552C19.852 13.3383 19.8595 13.6302 20.0299 13.7154C22.0887 14.7453 24.1487 15.7742 26.2075 16.8042C26.5132 16.9565 26.7837 16.4974 26.4759 16.344C24.4171 15.3141 22.3572 14.2852 20.2983 13.2552V13.7154C22.4285 12.7216 24.5587 11.7268 26.6889 10.7331C26.9999 10.5882 26.7294 10.1292 26.4205 10.2729Z" fill="#67BECE"/>
<path d="M3.14155 16.1683C4.34938 21.8922 8.93679 26.4306 14.6788 27.5692C15.6416 27.7598 16.6258 27.8674 17.6078 27.8695C18.2927 27.8706 18.2937 26.8055 17.6078 26.8044C12.2738 26.798 7.34552 23.6634 5.12052 18.8044C4.69341 17.8725 4.37921 16.8872 4.16832 15.885C4.02666 15.215 2.99989 15.4983 3.14155 16.1683Z" fill="#3F54A3"/>
<path d="M34.4814 11.6797V19.5H32.5962V11.6797H34.4814ZM37.5215 14.9346V16.3848H33.9443V14.9346H37.5215ZM37.8276 11.6797V13.1353H33.9443V11.6797H37.8276ZM40.3224 15.1279V19.5H38.5123V13.6885H40.2042L40.3224 15.1279ZM42.0412 13.6455L42.0089 15.3267C41.9373 15.3195 41.8406 15.3105 41.7189 15.2998C41.5971 15.2891 41.4951 15.2837 41.4127 15.2837C41.2015 15.2837 41.0189 15.3088 40.8649 15.3589C40.7145 15.4054 40.5892 15.4771 40.4889 15.5737C40.3922 15.6668 40.3206 15.785 40.2741 15.9282C40.2311 16.0715 40.2114 16.238 40.215 16.4277L39.8873 16.2129C39.8873 15.8226 39.9249 15.4681 40.0001 15.1494C40.0789 14.8271 40.1899 14.5496 40.3331 14.3169C40.4764 14.0806 40.65 13.8997 40.8541 13.7744C41.0582 13.6455 41.2874 13.5811 41.5416 13.5811C41.6312 13.5811 41.7189 13.5864 41.8048 13.5972C41.8943 13.6079 41.9731 13.624 42.0412 13.6455ZM42.3553 16.6533V16.5405C42.3553 16.1144 42.4161 15.7223 42.5379 15.3643C42.6596 15.0026 42.8387 14.6893 43.075 14.4243C43.3113 14.1593 43.6031 13.9535 43.9505 13.8066C44.2978 13.6562 44.6988 13.5811 45.1536 13.5811C45.6119 13.5811 46.0148 13.6562 46.3621 13.8066C46.713 13.9535 47.0066 14.1593 47.2429 14.4243C47.4793 14.6893 47.6583 15.0026 47.7801 15.3643C47.9018 15.7223 47.9627 16.1144 47.9627 16.5405V16.6533C47.9627 17.0758 47.9018 17.4679 47.7801 17.8296C47.6583 18.1877 47.4793 18.501 47.2429 18.7695C47.0066 19.0345 46.7148 19.2404 46.3675 19.3872C46.0201 19.534 45.6191 19.6074 45.1643 19.6074C44.7096 19.6074 44.3068 19.534 43.9558 19.3872C43.6049 19.2404 43.3113 19.0345 43.075 18.7695C42.8387 18.501 42.6596 18.1877 42.5379 17.8296C42.4161 17.4679 42.3553 17.0758 42.3553 16.6533ZM44.1653 16.5405V16.6533C44.1653 16.8717 44.1814 17.0758 44.2137 17.2656C44.2459 17.4554 44.2996 17.6219 44.3748 17.7651C44.45 17.9048 44.552 18.014 44.6809 18.0928C44.8098 18.1715 44.971 18.2109 45.1643 18.2109C45.3541 18.2109 45.5117 18.1715 45.637 18.0928C45.7659 18.014 45.8679 17.9048 45.9431 17.7651C46.0183 17.6219 46.0721 17.4554 46.1043 17.2656C46.1365 17.0758 46.1526 16.8717 46.1526 16.6533V16.5405C46.1526 16.3293 46.1365 16.1305 46.1043 15.9443C46.0721 15.7546 46.0183 15.5881 45.9431 15.4448C45.8679 15.298 45.7659 15.1834 45.637 15.1011C45.5081 15.0187 45.347 14.9775 45.1536 14.9775C44.9638 14.9775 44.8045 15.0187 44.6756 15.1011C44.5502 15.1834 44.45 15.298 44.3748 15.4448C44.2996 15.5881 44.2459 15.7546 44.2137 15.9443C44.1814 16.1305 44.1653 16.3293 44.1653 16.5405ZM50.6562 14.9292V19.5H48.8461V13.6885H50.5434L50.6562 14.9292ZM50.4413 16.3955L50.017 16.4062C50.017 15.9622 50.0707 15.5666 50.1781 15.2192C50.2856 14.8683 50.4377 14.5711 50.6347 14.3276C50.8316 14.0841 51.0662 13.8997 51.3383 13.7744C51.614 13.6455 51.9202 13.5811 52.2568 13.5811C52.5253 13.5811 52.7706 13.6204 52.9926 13.6992C53.2182 13.778 53.4115 13.9051 53.5727 14.0806C53.7374 14.256 53.8627 14.4888 53.9487 14.7788C54.0382 15.0653 54.0829 15.4198 54.0829 15.8423V19.5H52.2621V15.8369C52.2621 15.6042 52.2299 15.4269 52.1654 15.3052C52.101 15.1799 52.0079 15.0939 51.8862 15.0474C51.7644 15.0008 51.6158 14.9775 51.4404 14.9775C51.2542 14.9775 51.0966 15.0133 50.9677 15.085C50.8388 15.1566 50.7349 15.2568 50.6562 15.3857C50.581 15.5111 50.5255 15.6597 50.4897 15.8315C50.4574 16.0034 50.4413 16.1914 50.4413 16.3955ZM58.2588 13.6885V14.9453H54.7569V13.6885H58.2588ZM55.4927 12.2437H57.3028V17.604C57.3028 17.758 57.3207 17.8779 57.3565 17.9639C57.3923 18.0462 57.4532 18.1053 57.5391 18.1411C57.6286 18.1733 57.7468 18.1895 57.8936 18.1895C57.9975 18.1895 58.0834 18.1877 58.1514 18.1841C58.2195 18.1769 58.2839 18.168 58.3448 18.1572V19.4517C58.1908 19.5018 58.0297 19.5394 57.8614 19.5645C57.6931 19.5931 57.5141 19.6074 57.3243 19.6074C56.9376 19.6074 56.6063 19.5465 56.3306 19.4248C56.0585 19.3031 55.8508 19.1115 55.7076 18.8501C55.5643 18.5887 55.4927 18.2485 55.4927 17.8296V12.2437ZM61.903 19.6074C61.4304 19.6074 61.0078 19.534 60.6354 19.3872C60.2631 19.2368 59.9479 19.0309 59.6901 18.7695C59.4359 18.5081 59.2408 18.2074 59.1047 17.8672C58.9722 17.527 58.906 17.1672 58.906 16.7876V16.5835C58.906 16.1574 58.965 15.7635 59.0832 15.4019C59.2014 15.0366 59.3768 14.7179 59.6096 14.4458C59.8423 14.1737 60.1341 13.9624 60.4851 13.812C60.836 13.658 61.2442 13.5811 61.7097 13.5811C62.1215 13.5811 62.4903 13.6473 62.8161 13.7798C63.142 13.9123 63.4177 14.1021 63.6433 14.3491C63.8724 14.5962 64.0461 14.8952 64.1643 15.2461C64.286 15.597 64.3469 15.9909 64.3469 16.4277V17.1636H59.5988V16.0303H62.5798V15.8906C62.5834 15.6973 62.5493 15.5326 62.4777 15.3965C62.4097 15.2604 62.3094 15.1566 62.177 15.085C62.0445 15.0133 61.8833 14.9775 61.6936 14.9775C61.4966 14.9775 61.3337 15.0205 61.2048 15.1064C61.0795 15.1924 60.981 15.3105 60.9094 15.4609C60.8413 15.6077 60.793 15.7778 60.7644 15.9712C60.7357 16.1646 60.7214 16.3687 60.7214 16.5835V16.7876C60.7214 17.0024 60.75 17.1976 60.8073 17.373C60.8682 17.5485 60.9541 17.6989 61.0651 17.8242C61.1797 17.946 61.3158 18.0409 61.4733 18.1089C61.6345 18.1769 61.8171 18.2109 62.0212 18.2109C62.2683 18.2109 62.5118 18.1644 62.7517 18.0713C62.9916 17.9782 63.1975 17.8242 63.3693 17.6094L64.1911 18.5869C64.0729 18.7552 63.9047 18.9181 63.6862 19.0757C63.4714 19.2332 63.2136 19.3621 62.9128 19.4624C62.612 19.5591 62.2754 19.6074 61.903 19.6074ZM66.9705 14.9292V19.5H65.1605V13.6885H66.8578L66.9705 14.9292ZM66.7557 16.3955L66.3314 16.4062C66.3314 15.9622 66.3851 15.5666 66.4925 15.2192C66.5999 14.8683 66.7521 14.5711 66.9491 14.3276C67.146 14.0841 67.3805 13.8997 67.6527 13.7744C67.9284 13.6455 68.2345 13.5811 68.5711 13.5811C68.8397 13.5811 69.085 13.6204 69.307 13.6992C69.5326 13.778 69.7259 13.9051 69.8871 14.0806C70.0518 14.256 70.1771 14.4888 70.263 14.7788C70.3525 15.0653 70.3973 15.4198 70.3973 15.8423V19.5H68.5765V15.8369C68.5765 15.6042 68.5443 15.4269 68.4798 15.3052C68.4154 15.1799 68.3223 15.0939 68.2005 15.0474C68.0788 15.0008 67.9302 14.9775 67.7547 14.9775C67.5685 14.9775 67.411 15.0133 67.2821 15.085C67.1532 15.1566 67.0493 15.2568 66.9705 15.3857C66.8954 15.5111 66.8399 15.6597 66.804 15.8315C66.7718 16.0034 66.7557 16.1914 66.7557 16.3955ZM74.8525 18.168V11.25H76.6733V19.5H75.0405L74.8525 18.168ZM71.2861 16.6641V16.5513C71.2861 16.1108 71.3345 15.7098 71.4311 15.3481C71.5278 14.9829 71.671 14.6696 71.8608 14.4082C72.0506 14.1432 72.2869 13.9391 72.5698 13.7959C72.8527 13.6527 73.1785 13.5811 73.5473 13.5811C73.8768 13.5811 74.165 13.658 74.4121 13.812C74.6592 13.9624 74.8704 14.1737 75.0459 14.4458C75.2213 14.7179 75.3646 15.0366 75.4756 15.4019C75.5866 15.7635 75.6707 16.1538 75.728 16.5728V16.707C75.6707 17.1009 75.5866 17.4733 75.4756 17.8242C75.3646 18.1715 75.2213 18.4795 75.0459 18.748C74.8704 19.0166 74.6574 19.2279 74.4067 19.3818C74.1596 19.5322 73.8696 19.6074 73.5366 19.6074C73.1678 19.6074 72.8419 19.534 72.5591 19.3872C72.2798 19.2404 72.0452 19.0345 71.8554 18.7695C71.6693 18.5046 71.5278 18.193 71.4311 17.835C71.3345 17.4769 71.2861 17.0866 71.2861 16.6641ZM73.0962 16.5513V16.6641C73.0962 16.8825 73.1105 17.0848 73.1391 17.271C73.1678 17.4572 73.2161 17.6219 73.2842 17.7651C73.3558 17.9048 73.4489 18.014 73.5635 18.0928C73.6816 18.1715 73.8266 18.2109 73.9985 18.2109C74.2313 18.2109 74.4228 18.1554 74.5732 18.0444C74.7272 17.9334 74.84 17.7759 74.9116 17.5718C74.9868 17.3677 75.019 17.1278 75.0083 16.8521V16.4277C75.0154 16.1914 74.9993 15.9837 74.9599 15.8047C74.9206 15.6221 74.8579 15.4699 74.772 15.3481C74.6896 15.2264 74.584 15.1351 74.4551 15.0742C74.3297 15.0098 74.1811 14.9775 74.0093 14.9775C73.841 14.9775 73.6977 15.0169 73.5796 15.0957C73.465 15.1745 73.3719 15.2855 73.3003 15.4287C73.2287 15.5684 73.1767 15.7349 73.1445 15.9282C73.1123 16.118 73.0962 16.3257 73.0962 16.5513ZM81.679 11.6797H83.2151L84.9607 17.1206L86.7063 11.6797H88.2424L85.5838 19.5H84.3377L81.679 11.6797ZM80.7444 11.6797H82.3342L82.6297 17.6738V19.5H80.7444V11.6797ZM87.5872 11.6797H89.1824V19.5H87.2918V17.6738L87.5872 11.6797ZM93.2294 19.6074C92.7567 19.6074 92.3342 19.534 91.9618 19.3872C91.5894 19.2368 91.2743 19.0309 91.0165 18.7695C90.7623 18.5081 90.5671 18.2074 90.4311 17.8672C90.2986 17.527 90.2323 17.1672 90.2323 16.7876V16.5835C90.2323 16.1574 90.2914 15.7635 90.4096 15.4019C90.5277 15.0366 90.7032 14.7179 90.9359 14.4458C91.1687 14.1737 91.4605 13.9624 91.8114 13.812C92.1623 13.658 92.5705 13.5811 93.036 13.5811C93.4478 13.5811 93.8166 13.6473 94.1425 13.7798C94.4683 13.9123 94.744 14.1021 94.9696 14.3491C95.1988 14.5962 95.3725 14.8952 95.4906 15.2461C95.6124 15.597 95.6732 15.9909 95.6732 16.4277V17.1636H90.9252V16.0303H93.9062V15.8906C93.9097 15.6973 93.8757 15.5326 93.8041 15.3965C93.7361 15.2604 93.6358 15.1566 93.5033 15.085C93.3708 15.0133 93.2097 14.9775 93.0199 14.9775C92.823 14.9775 92.6601 15.0205 92.5312 15.1064C92.4058 15.1924 92.3074 15.3105 92.2357 15.4609C92.1677 15.6077 92.1194 15.7778 92.0907 15.9712C92.0621 16.1646 92.0478 16.3687 92.0478 16.5835V16.7876C92.0478 17.0024 92.0764 17.1976 92.1337 17.373C92.1946 17.5485 92.2805 17.6989 92.3915 17.8242C92.5061 17.946 92.6422 18.0409 92.7997 18.1089C92.9608 18.1769 93.1435 18.2109 93.3476 18.2109C93.5946 18.2109 93.8381 18.1644 94.078 18.0713C94.3179 17.9782 94.5238 17.8242 94.6957 17.6094L95.5175 18.5869C95.3993 18.7552 95.231 18.9181 95.0126 19.0757C94.7978 19.2332 94.5399 19.3621 94.2392 19.4624C93.9384 19.5591 93.6018 19.6074 93.2294 19.6074ZM98.2969 14.9292V19.5H96.4869V13.6885H98.1841L98.2969 14.9292ZM98.0821 16.3955L97.6578 16.4062C97.6578 15.9622 97.7115 15.5666 97.8189 15.2192C97.9263 14.8683 98.0785 14.5711 98.2754 14.3276C98.4724 14.0841 98.7069 13.8997 98.979 13.7744C99.2548 13.6455 99.5609 13.5811 99.8975 13.5811C100.166 13.5811 100.411 13.6204 100.633 13.6992C100.859 13.778 101.052 13.9051 101.213 14.0806C101.378 14.256 101.503 14.4888 101.589 14.7788C101.679 15.0653 101.724 15.4198 101.724 15.8423V19.5H99.9029V15.8369C99.9029 15.6042 99.8706 15.4269 99.8062 15.3052C99.7417 15.1799 99.6486 15.0939 99.5269 15.0474C99.4051 15.0008 99.2565 14.9775 99.0811 14.9775C98.8949 14.9775 98.7373 15.0133 98.6084 15.085C98.4795 15.1566 98.3757 15.2568 98.2969 15.3857C98.2217 15.5111 98.1662 15.6597 98.1304 15.8315C98.0982 16.0034 98.0821 16.1914 98.0821 16.3955ZM105.9 13.6885V14.9453H102.398V13.6885H105.9ZM103.133 12.2437H104.944V17.604C104.944 17.758 104.961 17.8779 104.997 17.9639C105.033 18.0462 105.094 18.1053 105.18 18.1411C105.269 18.1733 105.388 18.1895 105.534 18.1895C105.638 18.1895 105.724 18.1877 105.792 18.1841C105.86 18.1769 105.925 18.168 105.986 18.1572V19.4517C105.832 19.5018 105.67 19.5394 105.502 19.5645C105.334 19.5931 105.155 19.6074 104.965 19.6074C104.578 19.6074 104.247 19.5465 103.971 19.4248C103.699 19.3031 103.492 19.1115 103.348 18.8501C103.205 18.5887 103.133 18.2485 103.133 17.8296V12.2437ZM106.343 16.6533V16.5405C106.343 16.1144 106.403 15.7223 106.525 15.3643C106.647 15.0026 106.826 14.6893 107.062 14.4243C107.299 14.1593 107.59 13.9535 107.938 13.8066C108.285 13.6562 108.686 13.5811 109.141 13.5811C109.599 13.5811 110.002 13.6562 110.349 13.8066C110.7 13.9535 110.994 14.1593 111.23 14.4243C111.467 14.6893 111.646 15.0026 111.767 15.3643C111.889 15.7223 111.95 16.1144 111.95 16.5405V16.6533C111.95 17.0758 111.889 17.4679 111.767 17.8296C111.646 18.1877 111.467 18.501 111.23 18.7695C110.994 19.0345 110.702 19.2404 110.355 19.3872C110.007 19.534 109.606 19.6074 109.152 19.6074C108.697 19.6074 108.294 19.534 107.943 19.3872C107.592 19.2404 107.299 19.0345 107.062 18.7695C106.826 18.501 106.647 18.1877 106.525 17.8296C106.403 17.4679 106.343 17.0758 106.343 16.6533ZM108.153 16.5405V16.6533C108.153 16.8717 108.169 17.0758 108.201 17.2656C108.233 17.4554 108.287 17.6219 108.362 17.7651C108.437 17.9048 108.539 18.014 108.668 18.0928C108.797 18.1715 108.958 18.2109 109.152 18.2109C109.341 18.2109 109.499 18.1715 109.624 18.0928C109.753 18.014 109.855 17.9048 109.93 17.7651C110.006 17.6219 110.059 17.4554 110.092 17.2656C110.124 17.0758 110.14 16.8717 110.14 16.6533V16.5405C110.14 16.3293 110.124 16.1305 110.092 15.9443C110.059 15.7546 110.006 15.5881 109.93 15.4448C109.855 15.298 109.753 15.1834 109.624 15.1011C109.495 15.0187 109.334 14.9775 109.141 14.9775C108.951 14.9775 108.792 15.0187 108.663 15.1011C108.538 15.1834 108.437 15.298 108.362 15.4448C108.287 15.5881 108.233 15.7546 108.201 15.9443C108.169 16.1305 108.153 16.3293 108.153 16.5405ZM114.692 15.1279V19.5H112.882V13.6885H114.574L114.692 15.1279ZM116.411 13.6455L116.378 15.3267C116.307 15.3195 116.21 15.3105 116.088 15.2998C115.967 15.2891 115.865 15.2837 115.782 15.2837C115.571 15.2837 115.388 15.3088 115.234 15.3589C115.084 15.4054 114.959 15.4771 114.858 15.5737C114.762 15.6668 114.69 15.785 114.644 15.9282C114.601 16.0715 114.581 16.238 114.584 16.4277L114.257 16.2129C114.257 15.8226 114.294 15.4681 114.37 15.1494C114.448 14.8271 114.559 14.5496 114.703 14.3169C114.846 14.0806 115.019 13.8997 115.224 13.7744C115.428 13.6455 115.657 13.5811 115.911 13.5811C116.001 13.5811 116.088 13.5864 116.174 13.5972C116.264 13.6079 116.343 13.624 116.411 13.6455Z" fill="white"/>
</svg>
