<svg width="120" height="30" viewBox="0 0 120 30" fill="none" xmlns="http://www.w3.org/2000/svg">
<rect width="120" height="30" fill="#181717"/>
<path fill-rule="evenodd" clip-rule="evenodd" d="M35.4999 5.24701C29.9778 5.24701 25.5 9.72385 25.5 15.2469C25.5 19.6653 28.3653 23.4135 32.3386 24.736C32.8382 24.8287 33.0216 24.5191 33.0216 24.2549C33.0216 24.0165 33.0124 23.2287 33.0081 22.3932C30.2261 22.9981 29.639 21.2133 29.639 21.2133C29.1841 20.0574 28.5287 19.7501 28.5287 19.7501C27.6213 19.1295 28.5971 19.1424 28.5971 19.1424C29.6011 19.2127 30.13 20.1729 30.13 20.1729C31.0219 21.7013 32.4694 21.2595 33.04 21.0042C33.1298 20.3578 33.3889 19.9165 33.6749 19.6668C31.4538 19.4143 29.1187 18.5567 29.1187 14.725C29.1187 13.6332 29.5095 12.7412 30.1492 12.0407C30.0452 11.789 29.703 10.7719 30.2459 9.39449C30.2459 9.39449 31.0855 9.12573 32.9965 10.4195C33.7943 10.1978 34.6499 10.0863 35.4999 10.0825C36.3494 10.0863 37.2055 10.1975 38.0049 10.4192C39.9135 9.1254 40.7521 9.39416 40.7521 9.39416C41.2964 10.7714 40.9541 11.7887 40.8503 12.0404C41.4915 12.7408 41.8794 13.6329 41.8794 14.7246C41.8794 18.5654 39.5401 19.411 37.3133 19.6587C37.6722 19.969 37.9918 20.5777 37.9918 21.5105C37.9918 22.8485 37.9802 23.9254 37.9802 24.2548C37.9802 24.5209 38.1604 24.8327 38.6671 24.7345C42.638 23.4107 45.5 19.6637 45.5 15.2469C45.4998 9.72419 41.0225 5.24701 35.4999 5.24701Z" fill="white"/>
<path d="M29.2875 19.6045C29.2655 19.6542 29.1873 19.6691 29.1161 19.6352C29.0433 19.6027 29.0027 19.535 29.0262 19.4852C29.0477 19.4338 29.1261 19.4197 29.1984 19.454C29.2713 19.4866 29.3127 19.555 29.2874 19.6047L29.2875 19.6045ZM29.6926 20.0565C29.645 20.1007 29.5518 20.0801 29.4886 20.0101C29.423 19.9405 29.4107 19.8473 29.4592 19.8024C29.5086 19.7584 29.599 19.7793 29.6646 19.8488C29.7298 19.9193 29.7427 20.0117 29.6927 20.0566L29.6926 20.0565ZM30.087 20.6322C30.0257 20.675 29.9254 20.635 29.8635 20.5461C29.8022 20.457 29.8022 20.3502 29.8651 20.3077C29.9269 20.2649 30.0257 20.3035 30.0887 20.3916C30.1496 20.4819 30.1496 20.5888 30.087 20.6322ZM30.627 21.1888C30.5724 21.2492 30.4555 21.233 30.37 21.1507C30.2827 21.0701 30.2584 20.9553 30.3132 20.895C30.3689 20.8344 30.4863 20.8513 30.5722 20.9331C30.6595 21.0136 30.6858 21.1285 30.6273 21.1886L30.627 21.1888ZM31.3722 21.5119C31.3478 21.5902 31.2356 21.6258 31.1221 21.5923C31.009 21.5581 30.935 21.4665 30.9582 21.3873C30.9814 21.3083 31.0945 21.2714 31.2086 21.307C31.3217 21.3411 31.3957 21.4322 31.3722 21.5119ZM32.1907 21.5716C32.1935 21.6541 32.0975 21.7223 31.9788 21.724C31.859 21.7268 31.7622 21.6599 31.761 21.5788C31.761 21.4955 31.8551 21.4281 31.9746 21.4258C32.0934 21.4236 32.1909 21.4898 32.1909 21.5715L32.1907 21.5716ZM32.9521 21.4422C32.9664 21.5225 32.8837 21.6051 32.7657 21.6271C32.6498 21.6486 32.5421 21.5986 32.5272 21.519C32.513 21.4365 32.5971 21.3539 32.713 21.3325C32.8312 21.3122 32.9372 21.3605 32.9521 21.4422Z" fill="white"/>
<path d="M58.1289 14.4414V17.9453C57.9844 18.1055 57.7617 18.2773 57.4609 18.4609C57.1641 18.6406 56.7891 18.7949 56.3359 18.9238C55.8828 19.0527 55.3496 19.1172 54.7363 19.1172C54.1699 19.1172 53.6562 19.0273 53.1953 18.8477C52.7344 18.6641 52.3379 18.3965 52.0059 18.0449C51.6777 17.6895 51.4238 17.2559 51.2441 16.7441C51.0684 16.2285 50.9805 15.6387 50.9805 14.9746V14.5C50.9805 13.8359 51.0703 13.2461 51.25 12.7305C51.4297 12.2148 51.6816 11.7812 52.0059 11.4297C52.334 11.0742 52.7188 10.8047 53.1602 10.6211C53.6055 10.4375 54.0938 10.3457 54.625 10.3457C55.4102 10.3457 56.0488 10.4707 56.541 10.7207C57.0332 10.9668 57.4062 11.3086 57.6602 11.7461C57.9141 12.1797 58.0684 12.6816 58.123 13.252H56.1484C56.1094 12.9707 56.0352 12.7324 55.9258 12.5371C55.8203 12.3379 55.668 12.1875 55.4688 12.0859C55.2695 11.9805 55.0117 11.9277 54.6953 11.9277C54.4492 11.9277 54.2246 11.9805 54.0215 12.0859C53.8223 12.1914 53.6523 12.3516 53.5117 12.5664C53.3711 12.7773 53.2617 13.043 53.1836 13.3633C53.1094 13.6836 53.0723 14.0586 53.0723 14.4883V14.9746C53.0723 15.4004 53.1074 15.7734 53.1777 16.0938C53.252 16.4141 53.3613 16.6816 53.5059 16.8965C53.6543 17.1074 53.8418 17.2676 54.0684 17.377C54.2988 17.4824 54.5703 17.5352 54.8828 17.5352C55.1016 17.5352 55.2891 17.5176 55.4453 17.4824C55.6016 17.4434 55.7305 17.3965 55.832 17.3418C55.9375 17.2832 56.0176 17.2285 56.0723 17.1777V15.8535H54.6426V14.4414H58.1289ZM62.5223 12.6602V19H60.5418V12.6602H62.5223ZM60.4246 11.0254C60.4246 10.7441 60.5262 10.5137 60.7293 10.334C60.9324 10.1543 61.1961 10.0645 61.5203 10.0645C61.8445 10.0645 62.1082 10.1543 62.3113 10.334C62.5145 10.5137 62.616 10.7441 62.616 11.0254C62.616 11.3066 62.5145 11.5371 62.3113 11.7168C62.1082 11.8965 61.8445 11.9863 61.5203 11.9863C61.1961 11.9863 60.9324 11.8965 60.7293 11.7168C60.5262 11.5371 60.4246 11.3066 60.4246 11.0254ZM68.2809 12.6602V14.0312H64.4605V12.6602H68.2809ZM65.2633 11.084H67.2379V16.9316C67.2379 17.0996 67.2574 17.2305 67.2965 17.3242C67.3355 17.4141 67.402 17.4785 67.4957 17.5176C67.5934 17.5527 67.7223 17.5703 67.8824 17.5703C67.9957 17.5703 68.0895 17.5684 68.1637 17.5645C68.2379 17.5566 68.3082 17.5469 68.3746 17.5352V18.9473C68.2066 19.002 68.0309 19.043 67.8473 19.0703C67.6637 19.1016 67.4684 19.1172 67.2613 19.1172C66.8395 19.1172 66.4781 19.0508 66.1773 18.918C65.8805 18.7852 65.6539 18.5762 65.4977 18.291C65.3414 18.0059 65.2633 17.6348 65.2633 17.1777V11.084ZM76.1078 13.8555V15.4375H71.7309V13.8555H76.1078ZM72.4164 10.4688V19H70.3598V10.4688H72.4164ZM77.4906 10.4688V19H75.4398V10.4688H77.4906ZM83.6066 17.459V12.6602H85.5871V19H83.7355L83.6066 17.459ZM83.7941 16.1699L84.3098 16.1582C84.3098 16.584 84.259 16.9785 84.1574 17.3418C84.0559 17.7012 83.9055 18.0137 83.7062 18.2793C83.5109 18.5449 83.2687 18.752 82.9797 18.9004C82.6945 19.0449 82.3645 19.1172 81.9895 19.1172C81.677 19.1172 81.3898 19.0742 81.1281 18.9883C80.8703 18.8984 80.6477 18.7598 80.4602 18.5723C80.2727 18.3809 80.1262 18.1367 80.0207 17.8398C79.9191 17.5391 79.8684 17.1797 79.8684 16.7617V12.6602H81.843V16.7734C81.843 16.9141 81.8605 17.0352 81.8957 17.1367C81.9309 17.2383 81.9816 17.3242 82.048 17.3945C82.1145 17.4609 82.1965 17.5117 82.2941 17.5469C82.3957 17.5781 82.5109 17.5938 82.6398 17.5938C82.9367 17.5938 83.1691 17.5312 83.3371 17.4062C83.5051 17.2812 83.6223 17.1113 83.6887 16.8965C83.759 16.6816 83.7941 16.4395 83.7941 16.1699ZM87.8945 10H89.8691V17.4414L89.6641 19H87.8945V10ZM93.7598 15.7598V15.8828C93.7598 16.3633 93.7109 16.8008 93.6133 17.1953C93.5156 17.5898 93.3652 17.9316 93.1621 18.2207C92.959 18.5059 92.7031 18.7266 92.3945 18.8828C92.0859 19.0391 91.7207 19.1172 91.2988 19.1172C90.916 19.1172 90.5879 19.0352 90.3145 18.8711C90.041 18.7031 89.8125 18.4727 89.6289 18.1797C89.4453 17.8828 89.2969 17.541 89.1836 17.1543C89.0703 16.7637 88.9805 16.3457 88.9141 15.9004V15.7539C88.9805 15.3125 89.0703 14.8984 89.1836 14.5117C89.2969 14.1211 89.4453 13.7793 89.6289 13.4863C89.8125 13.1895 90.0391 12.959 90.3086 12.7949C90.582 12.627 90.9082 12.543 91.2871 12.543C91.7129 12.543 92.0801 12.623 92.3887 12.7832C92.7012 12.9434 92.959 13.168 93.1621 13.457C93.3652 13.7461 93.5156 14.0859 93.6133 14.4766C93.7109 14.8672 93.7598 15.2949 93.7598 15.7598ZM91.7852 15.8828V15.7598C91.7852 15.5293 91.7715 15.3125 91.7441 15.1094C91.7168 14.9062 91.668 14.7266 91.5977 14.5703C91.5273 14.4141 91.4277 14.291 91.2988 14.2012C91.1699 14.1113 91.002 14.0664 90.7949 14.0664C90.584 14.0664 90.4062 14.1016 90.2617 14.1719C90.1211 14.2422 90.0078 14.3438 89.9219 14.4766C89.8398 14.6055 89.7812 14.7656 89.7461 14.957C89.7109 15.1445 89.6953 15.3574 89.6992 15.5957V16.0586C89.6914 16.3828 89.7207 16.6602 89.7871 16.8906C89.8535 17.1211 89.9688 17.2969 90.1328 17.418C90.2969 17.5391 90.5215 17.5996 90.8066 17.5996C91.0176 17.5996 91.1875 17.5586 91.3164 17.4766C91.4492 17.3945 91.5488 17.2773 91.6152 17.125C91.6816 16.9727 91.7266 16.791 91.75 16.5801C91.7734 16.3691 91.7852 16.1367 91.7852 15.8828Z" fill="white"/>
</svg>
