<svg width="120" height="30" viewBox="0 0 120 30" fill="none" xmlns="http://www.w3.org/2000/svg">
<rect width="120" height="30" fill="#E34F26"/>
<path d="M29.5715 4L31.2854 23.4366L38.9756 26L46.7148 23.4366L48.4287 4H29.5715ZM44.7064 10.2808H35.6805L35.8818 12.7067H44.505L43.8372 19.9942L39.0296 21.3201V21.3348H38.9756L34.1287 19.9942L33.834 16.2719H36.1764L36.3483 18.1429L38.9756 18.8549L41.6126 18.1429L41.9072 15.0884H33.7113L33.0827 7.93839H44.9224L44.7064 10.2808Z" fill="white"/>
<path d="M59.8269 13.8555V15.4375H55.45V13.8555H59.8269ZM56.1355 10.4688V19H54.0789V10.4688H56.1355ZM61.2097 10.4688V19H59.1589V10.4688H61.2097ZM67.6714 10.4688V19H65.6148V10.4688H67.6714ZM70.2378 10.4688V12.0566H63.107V10.4688H70.2378ZM73.3304 10.4688H75.0062L76.9105 16.4043L78.8148 10.4688H80.4906L77.5902 19H76.2308L73.3304 10.4688ZM72.3109 10.4688H74.0453L74.3675 17.0078V19H72.3109V10.4688ZM79.7757 10.4688H81.516V19H79.4535V17.0078L79.7757 10.4688ZM89.671 17.418V19H85.3585V17.418H89.671ZM86.091 10.4688V19H84.0343V10.4688H86.091Z" fill="white"/>
</svg>
