<svg width="120" height="30" viewBox="0 0 120 30" fill="none" xmlns="http://www.w3.org/2000/svg">
<rect width="120" height="30" fill="#0077B5"/>
<path d="M38.0714 5H20.9241C20.1384 5 19.5 5.64732 19.5 6.44196V23.558C19.5 24.3527 20.1384 25 20.9241 25H38.0714C38.8571 25 39.5 24.3527 39.5 23.558V6.44196C39.5 5.64732 38.8571 5 38.0714 5ZM25.5446 22.1429H22.5804V12.5982H25.5491V22.1429H25.5446ZM24.0625 11.2946C23.1116 11.2946 22.3438 10.5223 22.3438 9.57589C22.3438 8.62946 23.1116 7.85714 24.0625 7.85714C25.0089 7.85714 25.7813 8.62946 25.7813 9.57589C25.7813 10.5268 25.0134 11.2946 24.0625 11.2946ZM36.6562 22.1429H33.692V17.5C33.692 16.3929 33.6696 14.9688 32.1518 14.9688C30.6071 14.9688 30.3705 16.1741 30.3705 17.4196V22.1429H27.4063V12.5982H30.25V13.9018H30.2902C30.6875 13.1518 31.6563 12.3616 33.0982 12.3616C36.0982 12.3616 36.6562 14.3393 36.6562 16.9107V22.1429Z" fill="white"/>
<path d="M50.7871 17.418V19H46.4746V17.418H50.7871ZM47.207 10.4688V19H45.1504V10.4688H47.207ZM54.8465 12.6602V19H52.866V12.6602H54.8465ZM52.7488 11.0254C52.7488 10.7441 52.8504 10.5137 53.0535 10.334C53.2566 10.1543 53.5203 10.0645 53.8445 10.0645C54.1687 10.0645 54.4324 10.1543 54.6355 10.334C54.8387 10.5137 54.9402 10.7441 54.9402 11.0254C54.9402 11.3066 54.8387 11.5371 54.6355 11.7168C54.4324 11.8965 54.1687 11.9863 53.8445 11.9863C53.5203 11.9863 53.2566 11.8965 53.0535 11.7168C52.8504 11.5371 52.7488 11.3066 52.7488 11.0254ZM59.2047 14.0137V19H57.2301V12.6602H59.0816L59.2047 14.0137ZM58.9703 15.6133L58.5074 15.625C58.5074 15.1406 58.566 14.709 58.6832 14.3301C58.8004 13.9473 58.9664 13.623 59.1812 13.3574C59.3961 13.0918 59.652 12.8906 59.9488 12.7539C60.2496 12.6133 60.5836 12.543 60.9508 12.543C61.2437 12.543 61.5113 12.5859 61.7535 12.6719C61.9996 12.7578 62.2105 12.8965 62.3863 13.0879C62.566 13.2793 62.7027 13.5332 62.7965 13.8496C62.8941 14.1621 62.943 14.5488 62.943 15.0098V19H60.9566V15.0039C60.9566 14.75 60.9215 14.5566 60.8512 14.4238C60.7809 14.2871 60.6793 14.1934 60.5465 14.1426C60.4137 14.0918 60.2516 14.0664 60.0602 14.0664C59.857 14.0664 59.6852 14.1055 59.5445 14.1836C59.4039 14.2617 59.2906 14.3711 59.2047 14.5117C59.1227 14.6484 59.0621 14.8105 59.023 14.998C58.9879 15.1855 58.9703 15.3906 58.9703 15.6133ZM67.2309 9.99414V19H65.2563V9.99414H67.2309ZM71.2855 12.6602L68.5316 15.8887L67.0902 17.3301L66.2289 16.0762L67.4301 14.5117L68.9184 12.6602H71.2855ZM69.1703 19L67.477 16.1113L68.9359 15.0742L71.432 19H69.1703ZM75.9543 19.1172C75.4387 19.1172 74.9777 19.0371 74.5715 18.877C74.1652 18.7129 73.8215 18.4883 73.5402 18.2031C73.2629 17.918 73.05 17.5898 72.9016 17.2188C72.757 16.8477 72.6848 16.4551 72.6848 16.041V15.8184C72.6848 15.3535 72.7492 14.9238 72.8781 14.5293C73.007 14.1309 73.1984 13.7832 73.4523 13.4863C73.7062 13.1895 74.0246 12.959 74.4074 12.7949C74.7902 12.627 75.2355 12.543 75.7434 12.543C76.1926 12.543 76.5949 12.6152 76.9504 12.7598C77.3059 12.9043 77.6066 13.1113 77.8527 13.3809C78.1027 13.6504 78.2922 13.9766 78.4211 14.3594C78.5539 14.7422 78.6203 15.1719 78.6203 15.6484V16.4512H73.4406V15.2148H76.6926V15.0625C76.6965 14.8516 76.6594 14.6719 76.5812 14.5234C76.507 14.375 76.3977 14.2617 76.2531 14.1836C76.1086 14.1055 75.9328 14.0664 75.7258 14.0664C75.5109 14.0664 75.3332 14.1133 75.1926 14.207C75.0559 14.3008 74.9484 14.4297 74.8703 14.5938C74.7961 14.7539 74.7434 14.9395 74.7121 15.1504C74.6809 15.3613 74.6652 15.584 74.6652 15.8184V16.041C74.6652 16.2754 74.6965 16.4883 74.759 16.6797C74.8254 16.8711 74.9191 17.0352 75.0402 17.1719C75.1652 17.3047 75.3137 17.4082 75.4855 17.4824C75.6613 17.5566 75.8605 17.5938 76.0832 17.5938C76.3527 17.5938 76.6184 17.543 76.8801 17.4414C77.1418 17.3398 77.3664 17.1719 77.5539 16.9375L78.4504 18.0039C78.3215 18.1875 78.1379 18.3652 77.8996 18.5371C77.6652 18.709 77.384 18.8496 77.0559 18.959C76.7277 19.0645 76.3605 19.1172 75.9543 19.1172ZM84.2676 17.5469V10H86.2539V19H84.4727L84.2676 17.5469ZM80.377 15.9062V15.7832C80.377 15.3027 80.4297 14.8652 80.5352 14.4707C80.6406 14.0723 80.7969 13.7305 81.0039 13.4453C81.2109 13.1562 81.4688 12.9336 81.7773 12.7773C82.0859 12.6211 82.4414 12.543 82.8438 12.543C83.2031 12.543 83.5176 12.627 83.7871 12.7949C84.0566 12.959 84.2871 13.1895 84.4785 13.4863C84.6699 13.7832 84.8262 14.1309 84.9473 14.5293C85.0684 14.9238 85.1602 15.3496 85.2227 15.8066V15.9531C85.1602 16.3828 85.0684 16.7891 84.9473 17.1719C84.8262 17.5508 84.6699 17.8867 84.4785 18.1797C84.2871 18.4727 84.0547 18.7031 83.7812 18.8711C83.5117 19.0352 83.1953 19.1172 82.832 19.1172C82.4297 19.1172 82.0742 19.0371 81.7656 18.877C81.4609 18.7168 81.2051 18.4922 80.998 18.2031C80.7949 17.9141 80.6406 17.5742 80.5352 17.1836C80.4297 16.793 80.377 16.3672 80.377 15.9062ZM82.3516 15.7832V15.9062C82.3516 16.1445 82.3672 16.3652 82.3984 16.5684C82.4297 16.7715 82.4824 16.9512 82.5566 17.1074C82.6348 17.2598 82.7363 17.3789 82.8613 17.4648C82.9902 17.5508 83.1484 17.5938 83.3359 17.5938C83.5898 17.5938 83.7988 17.5332 83.9629 17.4121C84.1309 17.291 84.2539 17.1191 84.332 16.8965C84.4141 16.6738 84.4492 16.4121 84.4375 16.1113V15.6484C84.4453 15.3906 84.4277 15.1641 84.3848 14.9688C84.3418 14.7695 84.2734 14.6035 84.1797 14.4707C84.0898 14.3379 83.9746 14.2383 83.834 14.1719C83.6973 14.1016 83.5352 14.0664 83.3477 14.0664C83.1641 14.0664 83.0078 14.1094 82.8789 14.1953C82.7539 14.2812 82.6523 14.4023 82.5742 14.5586C82.4961 14.7109 82.4395 14.8926 82.4043 15.1035C82.3691 15.3105 82.3516 15.5371 82.3516 15.7832ZM90.8523 10.4688V19H88.8016V10.4688H90.8523ZM95.3453 14.0137V19H93.3707V12.6602H95.2223L95.3453 14.0137ZM95.1109 15.6133L94.648 15.625C94.648 15.1406 94.7066 14.709 94.8238 14.3301C94.941 13.9473 95.107 13.623 95.3219 13.3574C95.5367 13.0918 95.7926 12.8906 96.0895 12.7539C96.3902 12.6133 96.7242 12.543 97.0914 12.543C97.3844 12.543 97.652 12.5859 97.8941 12.6719C98.1402 12.7578 98.3512 12.8965 98.527 13.0879C98.7066 13.2793 98.8434 13.5332 98.9371 13.8496C99.0348 14.1621 99.0836 14.5488 99.0836 15.0098V19H97.0973V15.0039C97.0973 14.75 97.0621 14.5566 96.9918 14.4238C96.9215 14.2871 96.8199 14.1934 96.6871 14.1426C96.5543 14.0918 96.3922 14.0664 96.2008 14.0664C95.9977 14.0664 95.8258 14.1055 95.6852 14.1836C95.5445 14.2617 95.4313 14.3711 95.3453 14.5117C95.2633 14.6484 95.2027 14.8105 95.1637 14.998C95.1285 15.1855 95.1109 15.3906 95.1109 15.6133Z" fill="white"/>
</svg>
